<svg width="1440" height="476" viewBox="0 0 1440 476" fill="none" xmlns="http://www.w3.org/2000/svg">
<g opacity="0.6" clip-path="url(#clip0_19_253)">
<path d="M0.257813 475.348C192.547 475.714 384.841 475.291 577.131 475.225C750.161 475.163 923.191 475.392 1096.22 475.34C1210.73 475.304 1325.24 475.392 1439.75 475.348" stroke="#FFC640" stroke-width="0.5" stroke-miterlimit="10"/>
<path d="M0.257813 470.834C102.659 474.419 205.06 470.759 307.469 469.874C396.709 469.103 485.927 467.636 575.166 466.795C658.685 466.007 741.947 471.191 825.43 471.715C915.697 472.279 1005.96 469.913 1096.22 469.671C1210.73 469.363 1325.24 471.495 1439.75 470.988" stroke="#FFC640" stroke-width="0.5" stroke-miterlimit="10"/>
<path d="M0.257813 467.857C102.699 474.362 205.073 466.817 307.509 464.637C353.785 463.65 400.038 463.998 446.305 462.29C487.362 460.77 528.402 458.634 569.481 457.709C609.449 456.806 649.471 457.119 689.355 460.026C731.888 463.122 774.101 466.571 816.789 467.196C909.94 468.561 1003.07 464.117 1096.22 464.095C1210.75 464.069 1325.22 468.804 1439.75 468.385" stroke="#FFC640" stroke-width="0.5" stroke-miterlimit="10"/>
<path d="M0.257813 465.751C102.805 474.908 205.068 463.254 307.554 459.519C353.154 457.859 398.714 458.264 444.291 455.516C483.366 453.159 522.388 449.83 561.511 448.306C599.577 446.826 637.737 447.227 675.629 451.367C719.051 456.106 761.739 461.277 805.513 462.316C902.433 464.619 999.304 458.066 1096.23 458.55C1210.79 459.119 1325.19 466.773 1439.76 466.764" stroke="#FFC640" stroke-width="0.5" stroke-miterlimit="10"/>
<path d="M0.257813 463.862C102.992 475.595 205.051 459.788 307.594 454.437C352.407 452.098 397.167 452.604 441.922 448.773C478.841 445.61 515.649 441.092 552.657 438.978C588.661 436.921 624.798 437.484 660.508 442.823C681.283 445.928 701.743 450.358 722.651 452.723C746.085 455.37 769.647 456.775 793.214 457.52C894.255 460.713 995.184 451.917 1096.22 453.019C1210.83 454.265 1325.11 464.919 1439.75 465.395" stroke="#FFC640" stroke-width="0.5" stroke-miterlimit="10"/>
<path d="M0.257813 461.541C103.757 476.031 206.051 455.925 309.221 449.187C352.385 446.368 395.478 447.055 438.544 442.338C473.97 438.458 509.2 432.688 544.754 430.054C578.718 427.54 612.814 428.438 646.302 434.974C667.059 439.026 687.332 444.377 708.343 447.262C732.448 450.57 756.761 452.296 781.07 453.212C885.72 457.15 990.157 445.923 1094.78 447.443C1209.94 449.116 1324.56 462.717 1439.75 463.532" stroke="#FFC640" stroke-width="0.5" stroke-miterlimit="10"/>
<path d="M0.257813 458.132C103.997 475.599 205.966 451.776 309.256 443.866C351.985 440.594 394.629 441.673 437.22 436.119C470.978 431.719 504.448 424.963 538.389 421.973C570.877 419.11 603.427 420.576 635.154 428.407C655.854 433.516 675.896 439.66 697.044 442.999C721.727 446.897 746.698 448.852 771.656 449.856C879.515 454.19 986.983 440.171 1094.78 441.836C1210.01 443.615 1324.48 459.682 1439.75 460.431" stroke="#FFC640" stroke-width="0.5" stroke-miterlimit="10"/>
<path d="M0.257813 453.186C104.094 471.627 206.104 447.791 309.452 438.828C351.78 435.155 394.033 435.525 436.18 429.416C469.018 424.655 501.599 417.647 534.7 414.838C566.365 412.146 597.991 414.296 628.634 422.928C649.329 428.76 669.375 434.978 690.697 438.467C715.749 442.563 741.12 444.597 766.473 445.628C876.164 450.085 985.339 434.785 1094.94 436.295C1210.11 437.885 1324.7 451.204 1439.76 455.212" stroke="#FFC640" stroke-width="0.5" stroke-miterlimit="10"/>
<path d="M0.257813 449.812C104.063 462.505 206.958 446.637 310.047 435.322C352.083 430.706 394.011 426.936 435.842 420.572C469.725 415.414 503.666 409.667 537.954 407.967C570.317 406.359 602.689 408.865 634.145 416.784C680.016 428.337 725.687 434.683 773.016 436.855C881.302 441.827 989.428 431.301 1097.7 431.891C1211.96 432.512 1326.22 430.006 1439.76 445.417" stroke="#FFC640" stroke-width="0.5" stroke-miterlimit="10"/>
<path d="M0.257813 448.5C103.757 454.824 207.149 446.46 309.656 432.243C388.997 421.241 467.92 402.792 548.324 401.352C583.571 400.717 618.819 403.695 653.311 411.023C699.28 420.797 745.445 426.284 792.409 428.738C895.85 434.137 999.971 429.98 1103.48 428.139C1155.36 427.214 1207 421.805 1258.8 419.29C1319.63 416.335 1380.15 418.612 1439.76 431.768" stroke="#FFC640" stroke-width="0.5" stroke-miterlimit="10"/>
<path d="M0.257812 448.275C104.25 447.936 209.056 446.672 311.79 428.958C355.914 421.351 399.1 409.574 443.442 403.021C483.771 397.062 524.548 393.992 565.33 394.428C603.804 394.842 642.213 398.383 680.132 404.857C724.638 412.455 769.376 417.308 814.447 420.193C863.492 423.333 912.647 424.518 961.79 424.923C1009.99 425.32 1058.59 426.478 1106.74 424.346C1158.39 422.061 1209.08 411.341 1260.27 404.976C1320.92 397.441 1380.84 398.577 1439.75 416.08" stroke="#FFC640" stroke-width="0.5" stroke-miterlimit="10"/>
<path d="M0.257812 448.16C103.966 441.074 209.629 447.029 311.954 425.985C358.225 416.467 402.447 400.678 449.403 393.794C494.105 387.24 539.398 385.399 584.536 386.822C668.82 389.478 752.33 403.8 836.338 410.46C881.498 414.04 926.738 416.67 972.013 418.326C1017.68 419.995 1064.55 422.968 1110.17 419.594C1160.93 415.837 1209.63 400.343 1259.27 390.319C1320.59 377.934 1380.57 378.255 1439.75 400.193" stroke="#FFC640" stroke-width="0.5" stroke-miterlimit="10"/>
<path d="M0.257812 447.178C103.579 433.595 210.176 447.02 312.137 422.919C335.454 417.41 357.296 408.394 380.05 401.167C404.301 393.463 429.214 387.883 454.377 384.065C502.115 376.824 550.608 375.921 598.786 377.934C684.639 381.519 770.74 390.662 856.251 398.956C896.819 402.893 937.379 406.958 978.04 409.847C1021.24 412.917 1066.39 417.269 1109.6 413.182C1160.22 408.394 1207.52 388.773 1256.2 375.657C1283.63 368.266 1311.8 362.994 1340.33 363.109C1375.06 363.254 1408.21 371.882 1439.75 385.915" stroke="#FFC640" stroke-width="0.5" stroke-miterlimit="10"/>
<path d="M0.257812 444.351C103.325 424.769 211.029 446.342 312.852 419.471C335.957 413.375 356.816 403.047 378.974 394.494C403.941 384.853 429.988 378.15 456.39 373.728C506.306 365.364 557.213 365.073 607.658 367.386C654.325 369.526 700.836 374.155 747.498 376.3C787.173 378.128 826.532 379.977 866.007 384.628C903.042 388.993 939.921 394.565 976.982 398.713C1018.15 403.32 1061.45 408.302 1102.84 404.404C1154.65 399.524 1202.05 376.397 1251.12 361.114C1278.4 352.614 1306.61 346.58 1335.34 346.765C1372.41 347.007 1407.17 358.123 1439.76 375.106" stroke="#FFC640" stroke-width="0.5" stroke-miterlimit="10"/>
<path d="M0.257812 439.352C103.165 421.422 210.278 439.295 311.937 413.433C335.739 407.377 357.403 397.159 380.263 388.566C405.083 379.237 430.881 372.618 457.026 368.121C506.426 359.625 556.804 358.586 606.814 359.916C653.311 361.153 699.72 364.637 746.223 365.633C784.293 366.447 821.839 366.425 859.762 370.627C934.916 378.96 1009.18 393.56 1085.2 391.195C1140.33 389.478 1191.12 365.835 1243.12 350.319C1271.72 341.788 1301.2 335.653 1331.2 336.08C1369.9 336.635 1406.02 348.645 1439.75 366.897" stroke="#FFC640" stroke-width="0.5" stroke-miterlimit="10"/>
<path d="M0.257812 435.251C103.926 425.637 209.758 427.799 311.728 404.611C359.719 393.697 405.332 376 454.057 367.61C500.546 359.607 547.719 356.313 594.848 355.225C640.266 354.181 685.688 355.23 731.101 355.842C768.745 356.348 805.864 355.41 843.441 358.987C880.329 362.497 916.972 368.015 953.767 372.336C993.526 377.009 1033.36 379.18 1073.36 379.977C1131.38 381.131 1185.54 357.308 1239.9 340.568C1268.87 331.649 1298.55 324.558 1328.98 323.364C1367.9 321.836 1404.89 331.314 1439.75 348.09" stroke="#FFC640" stroke-width="0.5" stroke-miterlimit="10"/>
<path d="M0.257812 432.155C104.957 430.631 209.056 416.727 311.545 395.965C357.465 386.663 402.807 374.873 448.914 366.421C492.22 358.48 535.905 352.6 579.784 348.821C622.122 345.179 664.615 343.461 707.112 343.356C746.845 343.254 785.955 343.166 825.563 347.196C908.202 355.604 989.948 371.838 1073.24 373.459C1131.3 374.591 1185.45 349.579 1238.75 330.05C1269.05 318.951 1300.1 309.002 1332.33 305.377C1369.35 301.211 1405.28 306.795 1439.76 320.541" stroke="#FFC640" stroke-width="0.5" stroke-miterlimit="10"/>
<path d="M0.257813 429.526C105.886 436.062 207.54 406.038 310.403 387.575C354.825 379.599 399.46 373.666 443.74 364.725C482.575 356.886 521.294 348.399 560.369 341.783C642.079 327.945 724.158 325.941 806.477 335.564C851.313 340.806 895.846 348.205 940.463 354.952C985.548 361.77 1031.99 369.865 1077.71 370.068C1137.03 370.332 1191.49 341.603 1244.17 318.035C1306.78 290.028 1371.32 268.443 1439.75 288.87" stroke="#FFC640" stroke-width="0.5" stroke-miterlimit="10"/>
<path d="M0.257813 426.839C107.495 441.633 206.833 394.952 310.772 378.916C332.658 375.538 354.558 375.208 376.552 373.133C397.051 371.195 417.382 367.786 437.477 363.329C473.383 355.366 508.338 343.919 543.817 334.358C579.144 324.835 615.072 317.678 651.716 315.987C696.511 313.922 741.573 318.436 785.937 324.228C837.098 330.909 887.903 339.973 938.748 348.632C963.039 352.768 987.343 356.833 1011.72 360.449C1035.39 363.959 1059.79 368.447 1083.78 368.407C1143.66 368.31 1198.12 335.525 1249.05 308.064C1307.99 276.287 1370.73 244.69 1439.76 257.723" stroke="#FFC640" stroke-width="0.5" stroke-miterlimit="10"/>
<path d="M0.257813 423.562C108.321 446.822 204.873 384.36 309.203 370.473C332.094 367.425 354.341 369.389 377.267 369.116C396.478 368.892 415.578 366.417 434.25 361.946C466.574 354.212 496.892 340.616 527.766 328.702C560.667 316.009 594.475 306.201 629.874 303.946C677.576 300.902 726.585 307.901 773.692 314.617C828.359 322.409 882.658 332.512 936.943 342.541C963.981 347.535 991.024 352.547 1018.12 357.194C1042.31 361.343 1067.55 367.315 1092.19 366.998C1152.22 366.227 1206.08 330.376 1255.17 300.004C1310.86 265.554 1371.16 226.144 1439.75 231.72" stroke="#FFC640" stroke-width="0.5" stroke-miterlimit="10"/>
<path d="M0.257813 419.167C110.002 451.547 204.242 371.948 310.136 361.545C333.57 359.242 355.314 363.62 378.481 365.496C396.313 366.941 414.271 365.76 431.712 361.761C463.178 354.547 491.229 338.511 519.881 324.395C550.973 309.077 583.305 297.388 618.206 294.939C666.815 291.53 717.158 299.317 765.118 306.293C822.519 314.644 879.546 325.364 936.49 336.313C964.563 341.713 992.615 347.205 1020.71 352.486C1045.01 357.057 1070.28 363.668 1095.07 364.404C1156 366.21 1211.34 327.945 1259.73 295.882C1313.65 260.145 1371.93 215.917 1439.75 215.512" stroke="#FFC640" stroke-width="0.5" stroke-miterlimit="10"/>
<path d="M0.257813 413.93C110.268 453.886 202.757 365.901 308.47 354.371C332.538 351.746 354.389 356.379 378.072 359.215C396.496 361.422 415.182 360.695 433.286 356.591C465.165 349.363 493.114 332.217 521.739 317.322C552.466 301.33 584.585 289.275 619.522 287.047C667.904 283.959 717.46 291.402 765.1 298.916C823.039 308.055 880.498 319.938 937.956 331.623C965.732 337.273 993.508 342.924 1021.37 348.121C1045.54 352.631 1070.5 358.361 1095.1 359.718C1156.07 363.083 1211.58 322.448 1258.74 289.354C1312.1 251.909 1370.84 203.316 1439.75 203.752" stroke="#FFC640" stroke-width="0.5" stroke-miterlimit="10"/>
<path d="M0.257814 409.57C113.678 456.123 206.544 358.057 315.021 345.135C339.552 342.21 361.795 347.073 385.957 349.53C404.274 351.393 422.765 350.284 440.642 345.866C472.498 337.991 500.341 320.356 528.891 305.007C559.822 288.381 592.306 275.639 627.771 273.393C675.127 270.398 723.58 279.022 769.882 287.892C826.963 298.828 883.382 312.865 939.956 326.086C967.826 332.6 995.744 338.982 1023.84 344.492C1047.36 349.108 1072.17 354.913 1096.25 355.115C1159.24 355.644 1214.43 307.606 1260.51 270.759C1311.6 229.901 1369.82 175.226 1439.76 175.468" stroke="#FFC640" stroke-width="0.5" stroke-miterlimit="10"/>
<path d="M0.257814 405.831C28.865 418.564 58.7834 423.725 89.9775 419.409C118.122 415.516 144.876 405.183 170.59 393.565C219.425 371.499 266.968 342.972 320.804 334.719C346.798 330.733 370.355 335.432 396.082 337.604C414.96 339.198 433.926 337.529 452.172 332.437C483.966 323.567 511.636 305.28 540.096 289.332C571.215 271.896 604.013 258.366 640.052 255.86C686.732 252.614 734.95 263.805 779.999 274.574C835.622 287.87 890.347 304.54 945.455 319.731C972.133 327.086 998.904 334.181 1025.95 340.074C1048.62 345.016 1073.08 351.222 1096.45 350.019C1125.5 348.522 1152.55 334.701 1176.17 318.793C1206.64 298.273 1233.64 273.014 1260.43 248.099C1287.98 222.479 1315.26 196.168 1345.8 174.001C1373.67 153.763 1404.51 137.005 1439.76 135.939" stroke="#FFC640" stroke-width="0.5" stroke-miterlimit="10"/>
<path d="M0.257814 402.338C29.1361 416.009 59.3924 422.047 91.2843 417.758C120.696 413.802 148.494 402.21 174.932 389.301C225.039 364.835 273.453 333.367 329.307 323.426C355.843 318.705 380.09 322.845 406.483 324.752C425.93 326.157 445.452 323.981 464.084 318.282C496.381 308.407 524.299 289.033 553.129 272.195C583.749 254.314 616.139 240.066 651.934 236.925C698.347 232.856 746.863 246.91 790.92 259.762C844.77 275.468 897.472 294.714 950.829 311.926C976.213 320.114 1001.76 327.927 1027.69 334.252C1050.18 339.735 1075.13 346.835 1098.42 343.677C1128.74 339.568 1155.76 321.832 1178.92 303.012C1208.84 278.709 1235.1 250.266 1261.28 222.153C1288.1 193.358 1314.67 163.977 1344.74 138.432C1371.98 115.296 1403.05 94.6003 1439.75 91.9181" stroke="#FFC640" stroke-width="0.5" stroke-miterlimit="10"/>
<path d="M0.257814 398.718C30.2473 413.758 62.1482 420.797 95.6581 415.674C125.345 411.133 153.148 398.687 179.506 384.888C230.858 358.013 280.294 323.316 338.344 312.244C365.453 307.073 390.211 310.949 417.28 312.42C436.704 313.472 456.11 310.874 474.583 304.853C507.515 294.115 535.807 273.679 565.081 255.904C595.879 237.199 628.629 222.065 665.019 218.63C710.979 214.296 759.099 230.469 801.966 245.034C853.535 262.559 903.744 283.721 954.887 302.396C980.032 311.574 1005.42 320.264 1031.35 327.029C1053.09 332.702 1077.74 339.969 1100.25 335.556C1131.77 329.376 1158.73 308.038 1181.51 286.716C1210.92 259.194 1236.48 227.835 1262.06 196.882C1288.97 164.325 1315.6 131.138 1346.33 101.986C1372.41 77.2473 1402.76 54.0234 1439.75 50.1696" stroke="#FFC640" stroke-width="0.5" stroke-miterlimit="10"/>
<path d="M0.257814 394.604C30.1229 410.605 62.206 418.933 96.1914 414.023C125.91 409.728 153.628 396.943 179.675 382.655C232.889 353.468 283.334 315.128 344.033 302.558C357.492 299.771 371.133 298.335 384.886 298.454C398.86 298.573 412.537 301.321 426.472 301.801C445.718 302.466 464.827 299.467 482.997 293.182C516.312 281.656 544.79 260.427 574.366 241.973C605.245 222.704 638.181 206.989 674.958 203.457C720.86 199.048 768.331 215.732 810.664 231.424C861.198 250.16 910.127 272.838 960.332 292.389C984.583 301.832 1009.18 310.662 1034.39 317.269C1056.37 323.025 1081.6 329.896 1104.23 324.571C1135.49 317.216 1161.58 294.199 1183.34 271.979C1213 241.7 1238.43 207.536 1263.97 173.869C1290.03 139.529 1315.85 104.651 1345.9 73.5785C1371.36 47.2496 1401.75 21.3214 1439.75 17.4456" stroke="#FFC640" stroke-width="0.5" stroke-miterlimit="10"/>
<path d="M0.257815 389.618C30.5496 407.244 63.5794 417.211 98.8672 411.847C128.341 407.368 155.455 394.217 180.986 379.489C233.769 349.046 283.263 309.363 343.993 295.547C358.488 292.248 373.369 290.557 388.246 290.777C402.225 290.984 415.938 293.697 429.886 294.111C448.959 294.679 467.88 291.579 485.847 285.254C519.548 273.393 548.235 251.614 578.082 232.724C609.045 213.129 642.159 197.071 679.243 193.724C725.229 189.57 771.358 203.893 813.918 219.617C864.407 238.264 913.047 261.413 963.248 280.779C987.943 290.306 1013.08 299.013 1038.92 304.976C1060.87 310.041 1086.12 315.084 1108.54 310.403C1139.23 303.994 1164.62 281.035 1185.5 259.158C1215.42 227.8 1240.64 192.217 1266.05 157.278C1291.95 121.665 1317.55 85.2851 1348.1 53.3627C1372.7 27.6591 1402.38 2.16701 1439.76 0.510989" stroke="#FFC640" stroke-width="0.5" stroke-miterlimit="10"/>
</g>
<defs>
<clipPath id="clip0_19_253">
<rect width="1440" height="476" fill="white" transform="matrix(1 8.74228e-08 8.74228e-08 -1 0 476)"/>
</clipPath>
</defs>
</svg>
