<svg width="139" height="33" viewBox="0 0 139 33" fill="none" xmlns="http://www.w3.org/2000/svg">
<path d="M28.286 0H4.71403C2.11054 0 0 2.11054 0 4.71403V28.286C0 30.8895 2.11054 33 4.71403 33H28.286C30.8895 33 33 30.8895 33 28.286V4.71403C33 2.11054 30.8895 0 28.286 0Z" fill="url(#paint0_radial_21_64)"/>
<path d="M22.8869 9.56156V15.6681C22.8869 15.952 22.8654 16.2296 22.8224 16.5001C22.5457 18.266 21.4048 19.7428 19.8465 20.486C19.1507 20.8192 18.3725 21.0045 17.5504 21.0045H15.4513C15.1334 21.0045 14.8227 20.9768 14.5209 20.9239C14.126 20.8541 13.8421 20.5048 13.8421 20.1036V17.3042C14.2558 17.7126 14.8245 17.9642 15.4513 17.9642H17.5504C18.4988 17.9642 19.3146 17.3866 19.6648 16.5636C19.6737 16.543 19.6818 16.5216 19.6898 16.5001C19.791 16.2422 19.8457 15.9619 19.8457 15.6681V9.56156C19.8457 8.2935 18.8176 7.26544 17.5495 7.26544H15.4504C14.1824 7.26544 13.1543 8.2935 13.1543 9.56156V11.4457C11.8943 11.9392 10.8295 12.8257 10.114 13.955V9.56156C10.114 6.61439 12.5033 4.22424 15.4513 4.22424H17.5504C20.4976 4.22424 22.8877 6.6135 22.8877 9.56156H22.8869Z" fill="#160100"/>
<path d="M22.8868 19.0452V23.4386C22.8868 26.3858 20.4975 28.7759 17.5495 28.7759H15.4504C12.5032 28.7759 10.113 26.3867 10.113 23.4386V17.3311C10.113 17.049 10.1345 16.7714 10.1775 16.5001C10.4533 14.7359 11.5951 13.2574 13.1533 12.5132C13.8492 12.181 14.6274 11.9956 15.4495 11.9956H17.5486C17.8683 11.9956 18.1826 12.0243 18.4871 12.078C18.8811 12.1478 19.165 12.4971 19.165 12.8974V15.7031C18.7503 15.2911 18.1781 15.0359 17.5486 15.0359H15.4495C14.5772 15.0359 13.8169 15.524 13.4301 16.2422C13.3844 16.3246 13.3441 16.4105 13.3092 16.5001C13.208 16.758 13.1533 17.0374 13.1533 17.3311V23.4386C13.1533 24.7067 14.1814 25.7347 15.4495 25.7347H17.5486C18.8166 25.7347 19.8447 24.7067 19.8447 23.4386V21.5544C21.1047 21.061 22.1695 20.1744 22.885 19.0452H22.8868Z" fill="#FFFDFA"/>
<path d="M43.1671 25.2451H39.2856L45.2021 8.10077H49.8692L55.7778 25.2451H51.8964L47.6064 12.0215H47.4728L43.1671 25.2451ZM42.9235 18.5036H52.1006V21.3322H42.9235V18.5036Z" fill="#FFFDFA"/>
<path d="M68.1687 16.0522L64.908 16.2565C64.853 15.9736 64.7351 15.7222 64.5466 15.5022C64.3658 15.2743 64.1223 15.0936 63.8237 14.96C63.5251 14.8265 63.1716 14.7557 62.7551 14.7557C62.2051 14.7557 61.7337 14.8736 61.3566 15.1015C60.9794 15.3293 60.7908 15.6436 60.7908 16.0286C60.7908 16.335 60.9166 16.5943 61.1601 16.8065C61.4037 17.0186 61.828 17.1915 62.4251 17.3172L64.7508 17.7886C66.0001 18.0479 66.9351 18.4565 67.548 19.03C68.1608 19.5957 68.4673 20.35 68.4673 21.2693C68.4673 22.11 68.2237 22.8486 67.7287 23.485C67.2337 24.1215 66.558 24.6165 65.7016 24.97C64.8451 25.3236 63.8551 25.5043 62.7394 25.5043C61.0344 25.5043 59.683 25.1507 58.6773 24.4357C57.6716 23.7207 57.0823 22.7543 56.9094 21.5286L60.4137 21.3479C60.5159 21.8665 60.7751 22.2593 61.1837 22.5343C61.5923 22.8093 62.1109 22.9429 62.7473 22.9429C63.3837 22.9429 63.8787 22.825 64.2559 22.5815C64.6409 22.3379 64.8294 22.0236 64.8373 21.6386C64.8373 21.3165 64.6959 21.0493 64.4287 20.8372C64.1616 20.625 63.7451 20.4679 63.1873 20.3579L60.9637 19.9179C59.7066 19.6665 58.7716 19.2343 58.1666 18.6136C57.5537 17.9929 57.2473 17.2072 57.2473 16.2486C57.2473 15.4236 57.4751 14.7086 57.923 14.1115C58.3708 13.5143 59.0073 13.0507 59.8244 12.7286C60.6416 12.4065 61.6001 12.2415 62.7001 12.2415C64.3266 12.2415 65.5994 12.5872 66.5344 13.2707C67.4694 13.9543 68.0116 14.8893 68.1687 16.0757V16.0522Z" fill="#FFFDFA"/>
<path d="M82.1466 13.64C82.0288 13.2315 81.8638 12.87 81.6516 12.5557C81.4395 12.2415 81.1802 11.9743 80.8738 11.7543C80.5673 11.5343 80.2216 11.3615 79.8366 11.2515C79.4516 11.1336 79.0195 11.0786 78.548 11.0786C77.668 11.0786 76.9059 11.2986 76.2459 11.7307C75.5859 12.1629 75.0673 12.7993 74.698 13.6243C74.3288 14.4493 74.148 15.4629 74.148 16.6572C74.148 17.8515 74.3288 18.865 74.6902 19.7057C75.0516 20.5465 75.5702 21.1829 76.2302 21.615C76.8902 22.055 77.6759 22.275 78.5795 22.275C79.3966 22.275 80.1038 22.1257 80.6852 21.835C81.2666 21.5443 81.7145 21.1279 82.0209 20.5936C82.3273 20.0593 82.4845 19.4229 82.4845 18.6922L83.223 18.8022H78.8073V16.0757H85.9809V18.2365C85.9809 19.745 85.6588 21.0336 85.0302 22.1179C84.3938 23.1943 83.5216 24.0272 82.4059 24.6086C81.2902 25.19 80.0095 25.4807 78.5716 25.4807C76.9688 25.4807 75.5545 25.1272 74.3366 24.4122C73.1188 23.6972 72.1759 22.6836 71.4923 21.3715C70.8166 20.0593 70.4788 18.4957 70.4788 16.6886C70.4788 15.2979 70.683 14.0565 71.0838 12.9643C71.4845 11.8722 72.058 10.945 72.7888 10.1907C73.5195 9.42861 74.368 8.85503 75.3423 8.45432C76.3166 8.06146 77.3695 7.85718 78.5009 7.85718C79.4752 7.85718 80.3788 7.99861 81.2116 8.28146C82.0445 8.56432 82.7909 8.95718 83.443 9.47575C84.0952 9.98646 84.6216 10.5993 85.038 11.3065C85.4545 12.0136 85.7138 12.7915 85.8316 13.64H82.1466Z" fill="#FFFDFA"/>
<path d="M96.8865 19.7686V12.3907H100.454V25.245H97.0279V22.9115H96.8943C96.6036 23.6657 96.1243 24.2707 95.4486 24.7265C94.7729 25.1822 93.9558 25.41 92.9893 25.41C92.1329 25.41 91.3708 25.2136 90.7186 24.8207C90.0665 24.4279 89.5558 23.8779 89.1943 23.155C88.8329 22.4322 88.6443 21.5757 88.6365 20.57V12.3907H92.2036V19.9415C92.2036 20.7036 92.4158 21.3007 92.8165 21.7407C93.2172 22.1807 93.7593 22.4007 94.435 22.4007C94.8672 22.4007 95.2679 22.2986 95.6372 22.1022C96.0143 21.9057 96.3129 21.6072 96.5486 21.2222C96.7843 20.8372 96.8943 20.35 96.8865 19.7765V19.7686Z" fill="#FFFDFA"/>
<path d="M106.967 25.4885C106.15 25.4885 105.419 25.3471 104.775 25.0564C104.131 24.7657 103.628 24.3414 103.259 23.7757C102.889 23.2099 102.701 22.5028 102.701 21.6542C102.701 20.9392 102.834 20.3421 103.094 19.8549C103.353 19.3678 103.714 18.9749 104.162 18.6842C104.618 18.3857 105.129 18.1657 105.71 18.0164C106.291 17.8671 106.896 17.7571 107.533 17.6942C108.279 17.6157 108.884 17.5449 109.34 17.4742C109.796 17.4035 110.126 17.3014 110.338 17.1599C110.55 17.0185 110.644 16.8142 110.644 16.5392V16.4921C110.644 15.9657 110.479 15.5492 110.149 15.2585C109.819 14.9678 109.348 14.8264 108.743 14.8264C108.099 14.8264 107.588 14.9678 107.211 15.2507C106.834 15.5335 106.582 15.8871 106.456 16.3114L103.156 16.0442C103.321 15.2664 103.651 14.5828 104.146 14.0171C104.634 13.4435 105.27 13.0035 106.048 12.6971C106.826 12.3907 107.729 12.2335 108.759 12.2335C109.474 12.2335 110.157 12.3199 110.817 12.4849C111.469 12.6499 112.059 12.9092 112.569 13.2628C113.08 13.6164 113.481 14.0642 113.779 14.6142C114.078 15.1642 114.219 15.8242 114.219 16.5864V25.2607H110.841V23.4771H110.739C110.534 23.8778 110.259 24.2314 109.914 24.5378C109.568 24.8442 109.151 25.0799 108.664 25.2528C108.177 25.4257 107.619 25.5042 106.983 25.5042L106.967 25.4885ZM107.989 23.0292C108.515 23.0292 108.979 22.9271 109.379 22.7149C109.78 22.5028 110.094 22.2199 110.322 21.8664C110.55 21.5049 110.668 21.1042 110.668 20.6564V19.2892C110.558 19.3599 110.401 19.4307 110.212 19.4857C110.024 19.5407 109.804 19.5957 109.56 19.6428C109.316 19.6899 109.081 19.7292 108.837 19.7685C108.601 19.8078 108.381 19.8392 108.185 19.8628C107.769 19.9257 107.399 20.0199 107.085 20.1535C106.771 20.2871 106.527 20.4678 106.354 20.6957C106.181 20.9235 106.095 21.1985 106.095 21.5364C106.095 22.0235 106.276 22.3928 106.629 22.6442C106.983 22.8957 107.431 23.0214 107.981 23.0214L107.989 23.0292Z" fill="#FFFDFA"/>
<path d="M116.977 25.245V12.3907H120.434V14.63H120.568C120.803 13.8286 121.196 13.2314 121.746 12.815C122.296 12.4064 122.933 12.2021 123.656 12.2021C123.836 12.2021 124.025 12.21 124.237 12.2336C124.441 12.2571 124.622 12.2886 124.779 12.3279V15.4943C124.614 15.4471 124.378 15.4 124.088 15.3607C123.789 15.3214 123.522 15.3057 123.278 15.3057C122.752 15.3057 122.288 15.4157 121.88 15.6436C121.471 15.8714 121.141 16.1857 120.906 16.5864C120.67 16.9871 120.552 17.4507 120.552 17.9771V25.2529H116.985L116.977 25.245Z" fill="#FFFDFA"/>
<path d="M130.743 25.4572C129.769 25.4572 128.881 25.2058 128.095 24.7029C127.309 24.2001 126.681 23.4536 126.225 22.4715C125.761 21.4893 125.534 20.2793 125.534 18.8415C125.534 17.4036 125.769 16.1386 126.241 15.1643C126.712 14.1901 127.349 13.4515 128.134 12.9643C128.92 12.4772 129.792 12.2336 130.735 12.2336C131.458 12.2336 132.055 12.3593 132.542 12.5951C133.021 12.8386 133.414 13.1372 133.713 13.4986C134.011 13.8601 134.239 14.2136 134.396 14.5593H134.506V8.10077H138.066V25.2451H134.554V23.1865H134.404C134.239 23.5479 134.004 23.8936 133.697 24.2472C133.391 24.5929 132.998 24.8836 132.519 25.1115C132.031 25.3393 131.45 25.4572 130.759 25.4572H130.743ZM131.874 22.6208C132.448 22.6208 132.935 22.4636 133.336 22.1493C133.736 21.8351 134.043 21.3951 134.255 20.8215C134.467 20.2479 134.577 19.5879 134.577 18.8179C134.577 18.0479 134.475 17.3879 134.263 16.8222C134.051 16.2565 133.744 15.8243 133.344 15.5179C132.943 15.2115 132.456 15.0543 131.874 15.0543C131.293 15.0543 130.798 15.2115 130.397 15.5336C129.996 15.8558 129.69 16.2958 129.486 16.8536C129.281 17.4193 129.179 18.0715 129.179 18.8101C129.179 19.5486 129.281 20.2165 129.494 20.7901C129.706 21.3636 130.004 21.8115 130.405 22.1258C130.806 22.4479 131.293 22.6051 131.882 22.6051L131.874 22.6208Z" fill="#FFFDFA"/>
<defs>
<radialGradient id="paint0_radial_21_64" cx="0" cy="0" r="1" gradientUnits="userSpaceOnUse" gradientTransform="translate(16.5 16.5) scale(16.5 16.5)">
<stop offset="0.473958" stop-color="#FFC640"/>
<stop offset="1" stop-color="#F2AF13"/>
</radialGradient>
</defs>
</svg>
